<svg xmlns="http://www.w3.org/2000/svg" xmlns:xlink="http://www.w3.org/1999/xlink" width="500" zoomAndPan="magnify" viewBox="0 0 375 374.999991" height="500" preserveAspectRatio="xMidYMid meet" version="1.0"><defs><clipPath id="467ef3ac75"><path d="M 39 3.984375 L 149 3.984375 L 149 115 L 39 115 Z M 39 3.984375 " clip-rule="nonzero"/></clipPath></defs><path fill="#462d22" d="M 293.945312 197.089844 C 293.945312 184.71875 226.378906 174.691406 145.898438 174.691406 C 65.421875 174.691406 0.191406 184.71875 0.191406 197.089844 C 0.191406 329.816406 116.492188 360.703125 116.492188 360.703125 C 116.492188 360.703125 149.367188 370.75 185.671875 359.71875 C 185.671875 359.71875 293.953125 332.269531 293.953125 197.089844 Z M 90.753906 330.6875 C 25.761719 282.386719 28.300781 226.742188 28.300781 226.742188 L 40.992188 230.972656 C 40.492188 289.515625 82.527344 324.421875 90.746094 330.6875 C 91.210938 331.027344 91.671875 331.375 92.132812 331.714844 C 92.132812 331.714844 91.636719 331.367188 90.746094 330.6875 Z M 145.820312 219.726562 C 84.679688 219.726562 35.109375 210.398438 35.109375 207.015625 C 35.109375 202.554688 84.679688 194.304688 145.820312 194.304688 C 206.960938 194.304688 258.296875 201.960938 258.296875 207.015625 C 258.296875 209.722656 206.960938 219.726562 145.820312 219.726562 Z M 145.820312 219.726562 " fill-opacity="1" fill-rule="nonzero"/><path fill="#462d22" d="M 346.101562 218.035156 C 333.5625 205.503906 297.53125 210.992188 297.53125 210.992188 C 296.488281 227.289062 293.609375 240.773438 293.609375 240.773438 C 293.609375 240.773438 315.777344 219.863281 329.734375 232.746094 C 346.65625 248.375 325.441406 281.28125 299.378906 293.414062 C 277.789062 303.46875 270.492188 299.847656 270.492188 299.847656 C 270.492188 299.847656 265.242188 307.921875 259.144531 314.925781 C 253.804688 321.050781 246.386719 328.710938 246.386719 328.710938 C 246.386719 328.710938 282.410156 324.683594 309.492188 309.957031 C 333.164062 297.089844 374.773438 246.683594 346.101562 218.035156 Z M 346.101562 218.035156 " fill-opacity="1" fill-rule="nonzero"/><path fill="#462d22" d="M 101.769531 121.582031 C 111.3125 121.582031 120.71875 117.90625 122.285156 109.894531 C 122.285156 109.722656 122.285156 109.304688 122.257812 109.136719 C 85.027344 83.160156 70.542969 23.226562 43.632812 23.226562 C 34.5625 23.226562 27.628906 31.550781 27.628906 42.898438 C 27.628906 67.980469 59.222656 121.582031 101.769531 121.582031 Z M 101.769531 121.582031 " fill-opacity="1" fill-rule="nonzero"/><path fill="#462d22" d="M 125.714844 114.363281 C 125.585938 114.398438 125.449219 114.433594 125.320312 114.472656 Z M 125.714844 114.363281 " fill-opacity="1" fill-rule="nonzero"/><g clip-path="url(#467ef3ac75)"><path fill="#462d22" d="M 103.859375 67.53125 C 117.539062 85.835938 127.347656 99.53125 127.347656 103.992188 C 127.347656 106.515625 127.6875 112.441406 125.722656 114.363281 C 138.921875 110.652344 147.226562 94.320312 148.328125 82.847656 C 152.464844 39.375 110.085938 3.984375 69.574219 3.984375 C 58.007812 3.984375 45.101562 7.808594 39.949219 18.507812 C 42.738281 18.195312 45.902344 17.914062 49.066406 17.914062 C 73.308594 17.894531 87.113281 45.140625 103.851562 67.53125 Z M 103.859375 67.53125 " fill-opacity="1" fill-rule="nonzero"/></g><path fill="#462d22" d="M 183.339844 147.253906 C 183.308594 147.421875 183.316406 147.839844 183.308594 148.015625 C 184.871094 156.019531 194.28125 159.699219 203.824219 159.699219 C 246.371094 159.699219 277.96875 106.097656 277.96875 81.015625 C 277.96875 69.667969 271.039062 61.347656 261.960938 61.347656 C 235.054688 61.347656 220.5625 121.277344 183.339844 147.261719 Z M 183.339844 147.253906 " fill-opacity="1" fill-rule="nonzero"/><path fill="#462d22" d="M 179.871094 152.480469 C 177.90625 150.570312 178.246094 144.636719 178.246094 142.117188 C 178.246094 137.65625 188.054688 123.957031 201.738281 105.65625 C 218.476562 83.261719 232.277344 56.019531 256.523438 56.042969 C 259.683594 56.042969 262.847656 56.324219 265.636719 56.632812 C 260.488281 45.9375 247.578125 42.109375 236.015625 42.109375 C 195.496094 42.109375 153.121094 77.5 157.269531 120.976562 C 158.359375 132.445312 166.667969 148.773438 179.871094 152.488281 Z M 179.871094 152.480469 " fill-opacity="1" fill-rule="nonzero"/><path fill="#462d22" d="M 180.269531 152.589844 C 180.140625 152.554688 180 152.519531 179.871094 152.480469 Z M 180.269531 152.589844 " fill-opacity="1" fill-rule="nonzero"/></svg>