<svg xmlns="http://www.w3.org/2000/svg" xmlns:xlink="http://www.w3.org/1999/xlink" width="500" zoomAndPan="magnify" viewBox="0 0 375 374.999991" height="500" preserveAspectRatio="xMidYMid meet" version="1.0"><defs><clipPath id="5cb880c2eb"><path d="M 39 3.984375 L 149 3.984375 L 149 115 L 39 115 Z M 39 3.984375 " clip-rule="nonzero"/></clipPath></defs><path fill="#f5f5dc" d="M 293.945312 197.238281 C 293.945312 184.855469 226.378906 174.824219 145.898438 174.824219 C 65.421875 174.824219 0.191406 184.855469 0.191406 197.238281 C 0.191406 330.066406 116.492188 360.976562 116.492188 360.976562 C 116.492188 360.976562 149.367188 371.03125 185.671875 359.992188 C 185.671875 359.992188 293.953125 332.519531 293.953125 197.238281 Z M 90.753906 330.9375 C 25.761719 282.597656 28.300781 226.910156 28.300781 226.910156 L 40.992188 231.144531 C 40.492188 289.734375 82.527344 324.667969 90.746094 330.9375 C 91.210938 331.277344 91.671875 331.625 92.132812 331.964844 C 92.132812 331.964844 91.636719 331.617188 90.746094 330.9375 Z M 145.820312 219.890625 C 84.679688 219.890625 35.109375 210.558594 35.109375 207.167969 C 35.109375 202.707031 84.679688 194.449219 145.820312 194.449219 C 206.960938 194.449219 258.296875 202.113281 258.296875 207.167969 C 258.296875 209.878906 206.960938 219.890625 145.820312 219.890625 Z M 145.820312 219.890625 " fill-opacity="1" fill-rule="nonzero"/><path fill="#f5f5dc" d="M 346.101562 218.199219 C 333.5625 205.660156 297.53125 211.148438 297.53125 211.148438 C 296.488281 227.460938 293.609375 240.953125 293.609375 240.953125 C 293.609375 240.953125 315.777344 220.027344 329.734375 232.921875 C 346.65625 248.5625 325.441406 281.492188 299.378906 293.636719 C 277.789062 303.699219 270.492188 300.074219 270.492188 300.074219 C 270.492188 300.074219 265.242188 308.15625 259.144531 315.164062 C 253.804688 321.296875 246.386719 328.960938 246.386719 328.960938 C 246.386719 328.960938 282.410156 324.929688 309.492188 310.191406 C 333.164062 297.3125 374.773438 246.871094 346.101562 218.199219 Z M 346.101562 218.199219 " fill-opacity="1" fill-rule="nonzero"/><path fill="#f5f5dc" d="M 101.769531 121.671875 C 111.3125 121.671875 120.71875 117.996094 122.285156 109.976562 C 122.285156 109.804688 122.285156 109.382812 122.257812 109.21875 C 85.027344 83.21875 70.542969 23.242188 43.632812 23.242188 C 34.5625 23.242188 27.628906 31.570312 27.628906 42.925781 C 27.628906 68.027344 59.222656 121.671875 101.769531 121.671875 Z M 101.769531 121.671875 " fill-opacity="1" fill-rule="nonzero"/><path fill="#f5f5dc" d="M 125.714844 114.449219 C 125.585938 114.484375 125.449219 114.519531 125.320312 114.554688 Z M 125.714844 114.449219 " fill-opacity="1" fill-rule="nonzero"/><g clip-path="url(#5cb880c2eb)"><path fill="#f5f5dc" d="M 103.859375 67.582031 C 117.539062 85.898438 127.347656 99.601562 127.347656 104.066406 C 127.347656 106.59375 127.6875 112.527344 125.722656 114.449219 C 138.921875 110.734375 147.226562 94.386719 148.328125 82.910156 C 152.464844 39.402344 110.085938 3.984375 69.574219 3.984375 C 58.007812 3.984375 45.101562 7.8125 39.949219 18.519531 C 42.738281 18.207031 45.902344 17.925781 49.066406 17.925781 C 73.308594 17.902344 87.113281 45.171875 103.851562 67.582031 Z M 103.859375 67.582031 " fill-opacity="1" fill-rule="nonzero"/></g><path fill="#f5f5dc" d="M 183.339844 147.367188 C 183.308594 147.53125 183.316406 147.949219 183.308594 148.125 C 184.871094 156.136719 194.28125 159.820312 203.824219 159.820312 C 246.371094 159.820312 277.96875 106.175781 277.96875 81.074219 C 277.96875 69.71875 271.039062 61.390625 261.960938 61.390625 C 235.054688 61.390625 220.5625 121.367188 183.339844 147.371094 Z M 183.339844 147.367188 " fill-opacity="1" fill-rule="nonzero"/><path fill="#f5f5dc" d="M 179.871094 152.59375 C 177.90625 150.679688 178.246094 144.742188 178.246094 142.222656 C 178.246094 137.757812 188.054688 124.046875 201.738281 105.734375 C 218.476562 83.320312 232.277344 56.058594 256.523438 56.082031 C 259.683594 56.082031 262.847656 56.363281 265.636719 56.671875 C 260.488281 45.96875 247.578125 42.140625 236.015625 42.140625 C 195.496094 42.140625 153.121094 77.558594 157.269531 121.066406 C 158.359375 132.542969 166.667969 148.882812 179.871094 152.601562 Z M 179.871094 152.59375 " fill-opacity="1" fill-rule="nonzero"/><path fill="#f5f5dc" d="M 180.269531 152.703125 C 180.140625 152.667969 180 152.632812 179.871094 152.59375 Z M 180.269531 152.703125 " fill-opacity="1" fill-rule="nonzero"/></svg>